<svg width="188" height="141" viewBox="0 0 188 141" fill="none" xmlns="http://www.w3.org/2000/svg">
<mask id="mask0_19_30" style="mask-type:luminance" maskUnits="userSpaceOnUse" x="0" y="0" width="188" height="141">
<path d="M0 0H187.783V140.837H0V0Z" fill="white"/>
</mask>
<g mask="url(#mask0_19_30)">
<path fill-rule="evenodd" clip-rule="evenodd" d="M0 0V140.837H187.783V0H0Z" fill="#2E42A5"/>
<mask id="mask1_19_30" style="mask-type:luminance" maskUnits="userSpaceOnUse" x="0" y="0" width="188" height="141">
<path fill-rule="evenodd" clip-rule="evenodd" d="M0 0V140.837H187.783V0H0Z" fill="white"/>
</mask>
<g mask="url(#mask1_19_30)">
<mask id="mask2_19_30" style="mask-type:luminance" maskUnits="userSpaceOnUse" x="0" y="0" width="188" height="141">
<path d="M0 0H187.783V140.837H0V0Z" fill="white"/>
</mask>
<g mask="url(#mask2_19_30)">
<path d="M-20.9097 130.775L20.4123 148.251L188.72 19L210.516 -6.96957L166.328 -12.8105L97.6798 42.8873L42.4246 80.4148L-20.9097 130.775Z" fill="white"/>
<path d="M-15.2529 143.019L5.7988 153.16L202.689 -9.38251H173.13L-15.2529 143.019Z" fill="#F50100"/>
<path d="M208.692 130.775L167.369 148.251L-0.937792 19L-22.7343 -6.96957L21.4538 -12.8105L90.1022 42.8873L145.357 80.4148L208.692 130.775Z" fill="white"/>
<path d="M207.282 139.563L186.23 149.704L102.393 80.1114L77.536 72.3354L-24.8313 -6.88037H4.7277L107.038 70.4553L134.213 79.7792L207.282 139.563Z" fill="#F50100"/>
<path fill-rule="evenodd" clip-rule="evenodd" d="M116.06 -11.7364H71.7224V46.9456H-11.5752V93.8913H71.7224V152.573H116.06V93.8913H199.68V46.9456H116.06V-11.7364Z" fill="#F50100"/>
<mask id="mask3_19_30" style="mask-type:luminance" maskUnits="userSpaceOnUse" x="-12" y="-12" width="212" height="165">
<path fill-rule="evenodd" clip-rule="evenodd" d="M116.06 -11.7364H71.7224V46.9456H-11.5752V93.8913H71.7224V152.573H116.06V93.8913H199.68V46.9456H116.06V-11.7364Z" fill="white"/>
</mask>
<g mask="url(#mask3_19_30)">
<path d="M71.7224 -11.7364V-23.4728H59.986V-11.7364H71.7224ZM116.06 -11.7364H127.796V-23.4728H116.06V-11.7364ZM71.7224 46.9456V58.682H83.4588V46.9456H71.7224ZM-11.5752 46.9456V35.2092H-23.3116V46.9456H-11.5752ZM-11.5752 93.8912H-23.3116V105.628H-11.5752V93.8912ZM71.7224 93.8912H83.4588V82.1548H71.7224V93.8912ZM71.7224 152.573H59.986V164.31H71.7224V152.573ZM116.06 152.573V164.31H127.796V152.573H116.06ZM116.06 93.8912V82.1548H104.323V93.8912H116.06ZM199.68 93.8912V105.628H211.417V93.8912H199.68ZM199.68 46.9456H211.417V35.2092H199.68V46.9456ZM116.06 46.9456H104.323V58.682H116.06V46.9456ZM71.7224 -2.67029e-05H116.06V-23.4728H71.7224V-2.67029e-05ZM83.4588 46.9456V-11.7364H59.986V46.9456H83.4588ZM-11.5752 58.682H71.7224V35.2092H-11.5752V58.682ZM0.161203 93.8912V46.9456H-23.3116V93.8912H0.161203ZM71.7224 82.1548H-11.5752V105.628H71.7224V82.1548ZM83.4588 152.573V93.8912H59.986V152.573H83.4588ZM116.06 140.837H71.7224V164.31H116.06V140.837ZM104.323 93.8912V152.573H127.796V93.8912H104.323ZM199.68 82.1548H116.06V105.628H199.68V82.1548ZM187.944 46.9456V93.8912H211.417V46.9456H187.944ZM116.06 58.682H199.68V35.2092H116.06V58.682ZM104.323 -11.7364V46.9456H127.796V-11.7364H104.323Z" fill="white"/>
</g>
</g>
</g>
</g>
</svg>
