<svg width="48" height="48" viewBox="0 0 48 48" fill="none" xmlns="http://www.w3.org/2000/svg">
<path d="M29.8006 38.719H18.1994C16.4802 38.719 15.0816 37.3204 15.0816 35.6012V12.3988C15.0816 10.6796 16.4802 9.28098 18.1994 9.28098H29.8006C31.5198 9.28098 32.9184 10.6796 32.9184 12.3988V13.5589C32.9184 13.9994 32.5613 14.3565 32.1209 14.3565C31.6804 14.3565 31.3233 13.9994 31.3233 13.5589V12.3988C31.3233 11.5592 30.6402 10.8761 29.8006 10.8761H18.1994C17.3598 10.8761 16.6767 11.5592 16.6767 12.3988V35.6012C16.6767 36.4408 17.3598 37.1239 18.1994 37.1239H29.8006C30.6402 37.1239 31.3233 36.4408 31.3233 35.6012V19.3595C31.3233 18.919 31.6804 18.5619 32.1209 18.5619C32.5613 18.5619 32.9184 18.919 32.9184 19.3595V35.6012C32.9184 37.3204 31.5198 38.719 29.8006 38.719Z" fill="#2D32AA"/>
<path d="M20.5196 14.3391C20.3097 14.3391 20.104 14.2541 19.9555 14.1056C19.8073 13.9571 19.7221 13.7515 19.7221 13.5415C19.7221 13.3315 19.8073 13.1262 19.9555 12.9777C20.104 12.8292 20.3097 12.7439 20.5196 12.7439C20.7296 12.7439 20.9353 12.8292 21.0837 12.9777C21.232 13.1262 21.3172 13.3315 21.3172 13.5415C21.3172 13.7515 21.232 13.9571 21.0837 14.1056C20.9353 14.2541 20.7296 14.3391 20.5196 14.3391Z" fill="#2D32AA"/>
<path d="M25.1601 35.2387H22.8399C22.3994 35.2387 22.0423 34.8816 22.0423 34.4411C22.0423 34.0006 22.3994 33.6435 22.8399 33.6435H25.1601C25.6006 33.6435 25.9577 34.0006 25.9577 34.4411C25.9577 34.8816 25.6006 35.2387 25.1601 35.2387Z" fill="#2D32AA"/>
<path d="M27.4805 14.3565H24C23.5595 14.3565 23.2024 13.9994 23.2024 13.5589C23.2024 13.1184 23.5595 12.7614 24 12.7614H27.4805C27.921 12.7614 28.2781 13.1184 28.2781 13.5589C28.2781 13.9994 27.921 14.3565 27.4805 14.3565Z" fill="#2D32AA"/>
</svg>
