<svg width="48" height="48" viewBox="0 0 48 48" fill="none" xmlns="http://www.w3.org/2000/svg">
<path d="M36.7613 10.4411H11.2387C10.1592 10.4411 9.28096 11.3193 9.28096 12.3988V32.1019C9.28096 33.1814 10.1592 34.0597 11.2387 34.0597H23.2024V35.9638H19.3595C18.919 35.9638 18.5619 36.3208 18.5619 36.7613C18.5619 37.2018 18.919 37.5589 19.3595 37.5589H28.6405C29.081 37.5589 29.4381 37.2018 29.4381 36.7613C29.4381 36.3208 29.081 35.9638 28.6405 35.9638H24.7976V34.0597H28.6405C29.081 34.0597 29.4381 33.7026 29.4381 33.2621C29.4381 32.8216 29.081 32.4645 28.6405 32.4645H11.2387C11.0387 32.4645 10.8761 32.3019 10.8761 32.1019V12.3988C10.8761 12.1989 11.0387 12.0363 11.2387 12.0363H36.7613C36.9612 12.0363 37.1239 12.1989 37.1239 12.3988V32.1019C37.1239 32.3019 36.9612 32.4645 36.7613 32.4645H34.4411C34.0006 32.4645 33.6435 32.8216 33.6435 33.2621C33.6435 33.7026 34.0006 34.0597 34.4411 34.0597H36.7613C37.8408 34.0597 38.719 33.1814 38.719 32.1019V12.3988C38.719 11.3193 37.8408 10.4411 36.7613 10.4411Z" fill="#2D32AA"/>
<path d="M22.8399 15.5166H25.1601C25.6006 15.5166 25.9577 15.1595 25.9577 14.719C25.9577 14.2785 25.6006 13.9214 25.1601 13.9214H22.8399C22.3994 13.9214 22.0423 14.2785 22.0423 14.719C22.0423 15.1595 22.3994 15.5166 22.8399 15.5166Z" fill="#2D32AA"/>
<path d="M32.3451 26.077L29.4645 23.1964L31.5285 21.614C31.7769 21.4235 31.891 21.1054 31.8201 20.8005C31.7493 20.4956 31.5066 20.2603 31.1997 20.1989L22.9963 18.5583C22.7348 18.5058 22.4644 18.5878 22.2759 18.7764C22.0873 18.965 22.0054 19.2353 22.0577 19.4968L23.6984 27.7001C23.6987 27.7019 23.6993 27.7035 23.6996 27.7052C23.7039 27.726 23.7089 27.7466 23.7149 27.767C23.7156 27.7696 23.7165 27.7721 23.7172 27.7747C23.7234 27.7951 23.7302 27.8154 23.738 27.8353C23.7386 27.8369 23.7393 27.8383 23.74 27.8399C23.7475 27.859 23.7559 27.8778 23.765 27.8963C23.7659 27.8981 23.7667 27.8998 23.7675 27.9016C23.7766 27.9198 23.7866 27.9376 23.7972 27.9551C23.7989 27.958 23.8006 27.9608 23.8023 27.9637C23.8128 27.9805 23.8239 27.997 23.8357 28.0132C23.8377 28.0159 23.8397 28.0186 23.8417 28.0212C23.8538 28.0374 23.8664 28.0533 23.8799 28.0687C23.881 28.0699 23.8821 28.071 23.8831 28.0722C23.896 28.0867 23.9095 28.1008 23.9236 28.1145C23.9255 28.1164 23.9274 28.1183 23.9293 28.1202C23.9434 28.1336 23.9581 28.1465 23.9733 28.159C23.9766 28.1617 23.9798 28.1643 23.9831 28.1669C23.9871 28.1701 23.991 28.1735 23.9952 28.1767C24.0013 28.1814 24.0077 28.1854 24.0139 28.1899C24.0228 28.1962 24.0316 28.2026 24.0407 28.2086C24.0512 28.2156 24.0618 28.222 24.0724 28.2283C24.0806 28.2332 24.0887 28.2381 24.097 28.2427C24.1089 28.2493 24.1211 28.2553 24.1332 28.2612C24.1408 28.2649 24.1484 28.2687 24.1561 28.2721C24.169 28.2778 24.182 28.283 24.1951 28.288C24.2027 28.291 24.2103 28.294 24.218 28.2967C24.231 28.3013 24.2442 28.3052 24.2573 28.309C24.2657 28.3114 24.2739 28.314 24.2823 28.3162C24.2948 28.3194 24.3074 28.322 24.32 28.3245C24.3294 28.3265 24.3386 28.3286 24.348 28.3302C24.36 28.3322 24.3721 28.3335 24.3841 28.3349C24.3942 28.3362 24.4042 28.3378 24.4144 28.3386C24.4281 28.3397 24.442 28.34 24.4558 28.3404C24.4638 28.3406 24.4717 28.3414 24.4797 28.3414C24.4942 28.3414 24.5087 28.3409 24.5233 28.3401C24.526 28.34 24.5286 28.3397 24.5313 28.3395C24.5424 28.3388 24.5537 28.3379 24.5649 28.3367C24.57 28.3361 24.575 28.3355 24.58 28.3348C24.5887 28.3337 24.5974 28.3326 24.6061 28.3312C24.6124 28.3301 24.6186 28.329 24.6248 28.3279C24.6288 28.3272 24.6329 28.3266 24.6369 28.3258C24.6404 28.3251 24.6437 28.3242 24.6472 28.3235C24.654 28.322 24.6609 28.3205 24.6677 28.3188C24.6749 28.3171 24.6821 28.3152 24.6893 28.3133C24.6958 28.3115 24.7023 28.3098 24.7088 28.3078C24.7165 28.3055 24.7242 28.3031 24.7318 28.3005C24.7375 28.2986 24.7433 28.2968 24.749 28.2947C24.7578 28.2916 24.7665 28.2882 24.7752 28.2848C24.7797 28.283 24.7842 28.2814 24.7886 28.2795C24.8018 28.274 24.8148 28.2682 24.8276 28.262C24.8278 28.2619 24.8281 28.2617 24.8284 28.2616C24.8409 28.2555 24.8532 28.2491 24.8653 28.2425C24.8695 28.2401 24.8737 28.2376 24.878 28.2352C24.886 28.2305 24.894 28.2259 24.9018 28.221C24.9068 28.2179 24.9117 28.2147 24.9167 28.2114C24.9236 28.2069 24.9305 28.2023 24.9374 28.1975C24.9424 28.1939 24.9475 28.1903 24.9525 28.1866C24.9591 28.1818 24.9657 28.1767 24.9721 28.1717C24.977 28.1679 24.9818 28.1642 24.9865 28.1603C24.9937 28.1543 25.0008 28.1481 25.0078 28.1419C25.0115 28.1387 25.0152 28.1356 25.0188 28.1323C25.0291 28.1228 25.0392 28.1131 25.049 28.1031C25.052 28.1001 25.0549 28.0968 25.0578 28.0937C25.0649 28.0862 25.072 28.0786 25.0788 28.0709C25.0822 28.067 25.0856 28.063 25.0889 28.059C25.0953 28.0516 25.1014 28.044 25.1075 28.0363C25.1094 28.0338 25.1114 28.0316 25.1134 28.0291L26.6587 26.0139C26.9267 25.6643 26.8607 25.1637 26.5111 24.8956C26.1616 24.6276 25.6609 24.6936 25.3929 25.0432L24.9177 25.6628L23.8565 20.3571L29.1621 21.4182L27.7718 22.484C27.5895 22.6238 27.4763 22.8354 27.4612 23.0647C27.4461 23.2939 27.5307 23.5185 27.6931 23.681L31.2162 27.204C31.2166 27.2044 31.2169 27.2048 31.2173 27.2052C31.3587 27.3466 31.3587 27.5767 31.2173 27.7181C31.0759 27.8595 30.8457 27.8595 30.7043 27.7181C30.3929 27.4066 29.8879 27.4067 29.5764 27.7181C29.2649 28.0296 29.2649 28.5346 29.5763 28.8461C29.958 29.2278 30.4593 29.4186 30.9607 29.4186C31.4621 29.4186 31.9635 29.2277 32.3452 28.8461C32.715 28.4763 32.9187 27.9846 32.9187 27.4616C32.9187 26.9506 32.7237 26.4698 32.3698 26.1031C32.3618 26.0942 32.3536 26.0855 32.3451 26.077Z" fill="#2D32AA"/>
</svg>
