<svg width="48" height="48" viewBox="0 0 48 48" fill="none" xmlns="http://www.w3.org/2000/svg">
<path d="M35.6012 32.4834C33.882 32.4834 32.4833 33.8821 32.4833 35.6013C32.4833 37.3204 33.882 38.719 35.6012 38.719C37.3203 38.719 38.719 37.3204 38.719 35.6013C38.719 33.8821 37.3203 32.4834 35.6012 32.4834ZM35.6012 37.1239C34.7616 37.1239 34.0785 36.4408 34.0785 35.6013C34.0785 34.7616 34.7616 34.0786 35.6012 34.0786C36.4407 34.0786 37.1238 34.7616 37.1238 35.6013C37.1238 36.4408 36.4407 37.1239 35.6012 37.1239Z" fill="#2D32AA"/>
<path d="M13.5589 34.8036C12.0796 34.8036 10.8761 33.6001 10.8761 32.1208V27.4804C10.8761 26.0011 12.0796 24.7976 13.5589 24.7976H18.6655C19.0188 26.1316 20.2362 27.1178 21.6798 27.1178C23.399 27.1178 24.7977 25.7192 24.7977 24C24.7977 22.2808 23.399 20.8822 21.6798 20.8822C20.2363 20.8822 19.0188 21.8684 18.6655 23.2024H13.5589C11.2 23.2024 9.28094 25.1215 9.28094 27.4804V32.1208C9.28094 34.4797 11.2 36.3988 13.5589 36.3988C13.9994 36.3988 14.3565 36.0417 14.3565 35.6012C14.3565 35.1607 13.9994 34.8036 13.5589 34.8036ZM21.6798 22.4773C22.5194 22.4773 23.2025 23.1604 23.2025 24C23.2025 24.8396 22.5194 25.5227 21.6798 25.5227C20.8402 25.5227 20.1572 24.8396 20.1572 24C20.1572 23.1604 20.8402 22.4773 21.6798 22.4773Z" fill="#2D32AA"/>
<path d="M37.466 12.8542C36.658 12.0462 35.5837 11.6012 34.4411 11.6012H15.413C15.0597 10.2672 13.8423 9.28098 12.3988 9.28098C10.6796 9.28098 9.28094 10.6796 9.28094 12.3988C9.28094 14.118 10.6796 15.5166 12.3988 15.5166C13.8423 15.5166 15.0597 14.5304 15.4131 13.1964H34.4411C35.1577 13.1964 35.8314 13.4754 36.3381 13.9822C36.8448 14.4889 37.1239 15.1626 37.1238 15.8792V20.5197C37.1239 21.2362 36.8448 21.9099 36.3381 22.4166C35.8314 22.9234 35.1577 23.2024 34.4411 23.2024H29.4059L30.3646 22.2438C30.676 21.9323 30.676 21.4273 30.3646 21.1158C30.0531 20.8043 29.5481 20.8043 29.2366 21.1158L26.9164 23.436C26.9072 23.4452 26.8982 23.4547 26.8895 23.4643C26.8873 23.4667 26.8853 23.4692 26.8831 23.4716C26.8766 23.479 26.8701 23.4864 26.8639 23.494C26.8621 23.4961 26.8604 23.4984 26.8586 23.5006C26.8522 23.5086 26.8458 23.5167 26.8396 23.525C26.8386 23.5265 26.8376 23.528 26.8365 23.5294C26.8298 23.5386 26.8232 23.5478 26.8169 23.5573C26.8166 23.5578 26.8163 23.5582 26.8161 23.5586C26.7456 23.6644 26.6998 23.7879 26.6867 23.921C26.6865 23.9227 26.6864 23.9244 26.6863 23.9261C26.6853 23.9374 26.6844 23.9486 26.6838 23.9601C26.6831 23.9733 26.6828 23.9866 26.6828 24C26.6828 24.0133 26.6831 24.0267 26.6838 24.0399C26.6844 24.0515 26.6853 24.0629 26.6863 24.0743C26.6865 24.0759 26.6865 24.0774 26.6867 24.079C26.6998 24.2123 26.7458 24.3359 26.8163 24.4418C26.8165 24.442 26.8166 24.4424 26.8169 24.4426C26.8233 24.4522 26.8299 24.4616 26.8368 24.4709C26.8378 24.4723 26.8387 24.4737 26.8397 24.475C26.8458 24.4833 26.8522 24.4914 26.8587 24.4995C26.8605 24.5017 26.8621 24.5039 26.8639 24.5061C26.8701 24.5137 26.8766 24.5211 26.8832 24.5284C26.8853 24.5308 26.8874 24.5333 26.8895 24.5357C26.8982 24.5454 26.9072 24.5548 26.9164 24.564L29.2367 26.8843C29.3924 27.04 29.5965 27.1179 29.8006 27.1179C30.0048 27.1179 30.2089 27.04 30.3646 26.8843C30.6761 26.5728 30.6761 26.0678 30.3646 25.7563L29.4059 24.7976H34.4411C35.5837 24.7976 36.658 24.3526 37.466 23.5446C38.2741 22.7366 38.7191 21.6623 38.719 20.5196V15.8792C38.7191 14.7365 38.2741 13.6622 37.466 12.8542ZM12.3988 13.9215C11.5592 13.9215 10.8761 13.2384 10.8761 12.3988C10.8761 11.5592 11.5592 10.8761 12.3988 10.8761C13.2383 10.8761 13.9214 11.5592 13.9214 12.3988C13.9214 13.2384 13.2383 13.9215 12.3988 13.9215Z" fill="#2D32AA"/>
<path d="M30.417 36.1073C30.4188 36.1052 30.4204 36.1029 30.4222 36.1007C30.4287 36.0927 30.4351 36.0845 30.4413 36.0762C30.4423 36.0749 30.4432 36.0735 30.4442 36.0722C30.451 36.0629 30.4577 36.0534 30.4641 36.0438C30.4643 36.0436 30.4645 36.0432 30.4647 36.043C30.5352 35.9371 30.5811 35.8135 30.5943 35.6802C30.5944 35.6787 30.5945 35.6771 30.5946 35.6755C30.5956 35.6641 30.5966 35.6527 30.5972 35.6412C30.5979 35.6279 30.5982 35.6146 30.5982 35.6012C30.5982 35.5879 30.5979 35.5745 30.5972 35.5613C30.5966 35.5499 30.5957 35.5386 30.5946 35.5273C30.5945 35.5256 30.5945 35.5239 30.5943 35.5222C30.5811 35.3891 30.5353 35.2656 30.4649 35.1598C30.4646 35.1594 30.4643 35.159 30.4641 35.1585C30.4577 35.1491 30.4512 35.1398 30.4445 35.1306C30.4434 35.1292 30.4424 35.1277 30.4413 35.1262C30.4352 35.1179 30.4288 35.1099 30.4223 35.1018C30.4206 35.0996 30.4189 35.0974 30.4171 35.0952C30.4109 35.0876 30.4044 35.0801 30.3978 35.0728C30.3957 35.0704 30.3936 35.0679 30.3915 35.0655C30.3828 35.0559 30.3738 35.0464 30.3646 35.0372L28.0443 32.717C27.7328 32.4055 27.2278 32.4055 26.9164 32.717C26.6049 33.0284 26.6049 33.5334 26.9164 33.8449L27.875 34.8037H19.3595C18.919 34.8037 18.5619 35.1608 18.5619 35.6013C18.5619 36.0418 18.919 36.3989 19.3595 36.3989H27.875L26.9163 37.3576C26.6048 37.6691 26.6048 38.1741 26.9163 38.4856C27.072 38.6413 27.2761 38.7192 27.4803 38.7192C27.6844 38.7192 27.8885 38.6413 28.0443 38.4856L30.3645 36.1653C30.3737 36.1561 30.3827 36.1466 30.3914 36.137C30.3936 36.1346 30.3956 36.1321 30.3978 36.1297C30.4043 36.1223 30.4108 36.1149 30.417 36.1073Z" fill="#2D32AA"/>
</svg>
